<svg xmlns="http://www.w3.org/2000/svg" fill="none" viewBox="0 0 257 314">
  <path fill="#A4C639" fill-rule="evenodd" d="M214.651 1.134A1.5 1.5 0 1 1 217 3l-27 34a1.48 1.48 0 0 1-.153.166c13.876 12.25 23.575 28.538 26.909 46.834H38c3.306-18.139 12.867-34.304 26.552-46.518L39.583 6.04a1.5 1.5 0 0 1 2.35-1.865L66.826 35.52C82.878 22.141 104.104 14 127.378 14c23.106 0 44.192 8.023 60.202 21.23a1.97 1.97 0 0 1 .071-.096l27-34ZM164.5 64c5.247 0 9.5-3.582 9.5-8s-4.253-8-9.5-8-9.5 3.582-9.5 8 4.253 8 9.5 8Zm-79-1c4.694 0 8.5-3.134 8.5-7s-3.806-7-8.5-7-8.5 3.134-8.5 7 3.806 7 8.5 7ZM217 88H38v150c0 8.284 6.716 15 15 15h12v44c0 9.389 7.611 17 17 17h6c9.389 0 17-7.611 17-17v-44h52v44c0 9.389 7.611 17 17 17h5c9.389 0 17-7.611 17-17v-44h6c8.284 0 15-6.716 15-15V88Zm21 43c-8.284 0-15 6.716-15 15v72c0 8.284 6.716 15 15 15h4c8.284 0 15-6.716 15-15v-72c0-8.284-6.716-15-15-15h-4ZM0 146.5c0-8.284 6.716-15 15-15h2c8.284 0 15 6.716 15 15v65c0 8.284-6.716 15-15 15h-2c-8.284 0-15-6.716-15-15v-65Z" clip-rule="evenodd"/>
</svg>
